<svg viewBox="0 0 32 32" fill="none" xmlns="http://www.w3.org/2000/svg">
  <!-- Fond général avec opacité -->
  <path opacity="0.35" d="M28.2411 22.6271C27.8629 23.5007 26.9634 24 26.0115 24H5.98863C5.03671 24 4.13725 23.5007 3.75899 22.6271C3.05624 21.0044 2.66675 19.2144 2.66675 17.3333C2.66675 9.96953 8.63628 4 16.0001 4C23.3639 4 29.3334 9.96953 29.3334 17.3333C29.3334 19.2144 28.9439 21.0044 28.2411 22.6271Z" fill="currentColor"/>
  
  <!-- Tête -->
  <path d="M16 10C14.3431 10 13 11.3431 13 13C13 14.6569 14.3431 16 16 16C17.6569 16 19 14.6569 19 13C19 11.3431 17.6569 10 16 10Z" fill="currentColor"/>
  
  <!-- Torse -->
  <path d="M10 22C10 19.7909 11.7909 18 14 18H18C20.2091 18 22 19.7909 22 22V24H10V22Z" fill="currentColor"/>
  
  <!-- Bouclier = responsabilité, protection -->
  <path d="M24.5 9C24.5 9 26 9.5 26 11C26 12.5 25 14 24 14C23 14 22 12.5 22 11C22 9.5 23.5 9 24.5 9Z" fill="currentColor"/>
</svg>
