<svg viewBox="0 0 32 32" fill="none" xmlns="http://www.w3.org/2000/svg">
  <!-- Ligne du trajet -->
  <path d="M8 6C8 4.89543 8.89543 4 10 4H22C23.1046 4 24 4.89543 24 6V8C24 9.10457 23.1046 10 22 10H16C13.7909 10 12 11.7909 12 14V18C12 20.2091 10.2091 22 8 22H6" 
        stroke="currentColor" stroke-width="2" stroke-linecap="round" stroke-linejoin="round" opacity="0.5"/>

  <!-- Point de départ -->
  <circle cx="6" cy="22" r="2" fill="currentColor" opacity="0.8"/>
  
  <!-- Point d’arrivée -->
  <path d="M24 26C25.1046 26 26 25.1046 26 24C26 22.8954 25.1046 22 24 22C22.8954 22 22 22.8954 22 24C22 25.1046 22.8954 26 24 26Z" 
        fill="currentColor" opacity="0.8"/>
</svg>
